<?xml version="1.0" encoding="UTF-8" standalone="no"?>
<!-- Created with Inkscape (http://www.inkscape.org/) -->

<svg
   width="210mm"
   height="210mm"
   viewBox="0 0 210 210"
   version="1.1"
   id="svg1"
   xml:space="preserve"
   xmlns="http://www.w3.org/2000/svg"
   xmlns:svg="http://www.w3.org/2000/svg"><defs
     id="defs1" /><g
     id="layer1"><path
       style="fill:#fe3a3a;stroke:none"
       d="m 77.469524,10.899043 c 0.0671,12.713005 3.17833,25.488058 4.3777,38.1 1.29516,13.619217 2.69673,24.139905 3.20767,37.807545 0.26748,7.155218 0.629329,17.082902 0.11154,24.751722 -0.602811,8.92807 -2.383976,22.75503 1.47504,29.40243 1.416513,2.44004 5.94175,5.48932 8.23176,7.05127 L 92.972384,130.37312 90.899444,99.563733 88.697064,51.7272 c 4.24893,1.734211 5.66951,2.186581 10.644687,1.505177 -0.28261,14.447491 8.806879,29.426601 19.105189,38.869269 8.37609,7.680147 16.22772,11.043024 27.6967,12.401104 -2.1014,-2.20371 -4.6605,-5.168557 -7.52593,-6.344387 -1.54692,-0.63478 -3.32609,-0.60219 -4.93889,-1.02536 -4.86085,-1.27542 -10.14856,-3.156587 -13.84119,-6.678087 -3.10325,-2.959418 -5.58972,-6.635388 -7.58198,-10.411428 -3.26118,-6.18109 -6.12891,-12.86565 -5.54447,-19.990741 0.26777,-3.264651 1.65366,-6.238982 3.01315,-9.172222 3.97858,-8.584195 10.04036,-14.822373 16.31791,-21.751544 3.81243,-4.20817 12.10777,-11.815526 11.16436,-12.820679 -0.0127,-1.052134 -4.93925,-6.000839 -7.52592,-6.012265 -2.79223,-0.01233 -6.24258,4.76349 -7.97631,6.624473 -6.84282,7.345116 -12.23408,15.844167 -19.28999,22.990084 -2.593147,2.626225 -8.002026,7.5755 -12.144336,6.719458 -1.24928,-0.258174 -1.64296,-1.477917 -1.89636,-2.578654 -0.60479,-2.62705 -1.07087,-5.320857 -1.46122,-7.98754 -0.5941,-4.058545 -1.07175,-8.151297 -1.50972,-12.22963 -0.20548,-1.913463 -0.0617,-4.367247 -0.94795,-6.106747 -1.37806,-2.704759 -4.6865,-4.923932 -6.98527,-6.828438 z"
       id="path1" /><text
       xml:space="preserve"
       style="font-style:normal;font-variant:normal;font-weight:normal;font-stretch:normal;font-size:27.8694px;font-family:'Britannic Bold';-inkscape-font-specification:'Britannic Bold, ';writing-mode:lr-tb;direction:ltr;fill:#000000;stroke-width:0.264583"
       x="-0.24982437"
       y="178.77386"
       id="text1"><tspan
         id="tspan1"
         x="-0.24982437"
         y="178.77386"
         style="font-style:normal;font-variant:normal;font-weight:normal;font-stretch:normal;font-size:27.8694px;font-family:'Britannic Bold';-inkscape-font-specification:'Britannic Bold, ';stroke-width:0.264583">Dekairy Software</tspan></text></g></svg>
